<svg width="32" height="33" viewBox="0 0 32 33" fill="none" xmlns="http://www.w3.org/2000/svg">
<path d="M30.9805 16.9453C31.6367 16.0781 32 15.0156 32 13.9102C32 12.1563 31.0195 10.4961 29.4414 9.57033C29.0351 9.33203 28.5726 9.20661 28.1016 9.20705H18.7344L18.9688 4.40627C19.0234 3.24612 18.6133 2.14456 17.8164 1.30471C17.4253 0.890763 16.9535 0.561407 16.4301 0.337002C15.9068 0.112597 15.3429 -0.00208989 14.7734 2.88287e-05C12.7422 2.88287e-05 10.9453 1.36721 10.4062 3.32424L7.05078 15.4727H2C1.30859 15.4727 0.75 16.0313 0.75 16.7227V30.9414C0.75 31.6328 1.30859 32.1914 2 32.1914H25.4883C25.8477 32.1914 26.1992 32.1211 26.5234 31.9805C28.3828 31.1875 29.582 29.3711 29.582 27.3555C29.582 26.8633 29.5117 26.3789 29.3711 25.9102C30.0273 25.043 30.3906 23.9805 30.3906 22.875C30.3906 22.3828 30.3203 21.8984 30.1797 21.4297C30.8359 20.5625 31.1992 19.5 31.1992 18.3945C31.1914 17.9023 31.1211 17.4141 30.9805 16.9453ZM3.5625 29.3789V18.2852H6.72656V29.3789H3.5625ZM28.4219 15.5899L27.5664 16.332L28.1094 17.3242C28.2883 17.6511 28.381 18.0181 28.3789 18.3906C28.3789 19.0352 28.0977 19.6484 27.6133 20.0703L26.7578 20.8125L27.3008 21.8047C27.4797 22.1315 27.5724 22.4985 27.5703 22.8711C27.5703 23.5156 27.2891 24.1289 26.8047 24.5508L25.9492 25.293L26.4922 26.2852C26.6711 26.612 26.7638 26.979 26.7617 27.3516C26.7617 28.2266 26.2461 29.0156 25.4492 29.375H9.22656V18.1602L13.1133 4.07815C13.2135 3.71721 13.4286 3.39878 13.7261 3.1711C14.0236 2.94343 14.3871 2.81891 14.7617 2.81643C15.0586 2.81643 15.3516 2.90237 15.5859 3.07815C15.9727 3.36721 16.1797 3.80471 16.1562 4.26955L15.7812 12.0195H28.0625C28.7578 12.4453 29.1875 13.1641 29.1875 13.9102C29.1875 14.5547 28.9062 15.1641 28.4219 15.5899Z" fill="#495057"/>
</svg>
