<svg width="28" height="28" viewBox="0 0 28 28" fill="none" xmlns="http://www.w3.org/2000/svg">
<path d="M25.6667 28C25.6667 28 28 28 28 25.6667C28 23.3333 25.6667 16.3333 14 16.3333C2.33333 16.3333 4.76837e-07 23.3333 4.76837e-07 25.6667C4.76837e-07 28 2.33333 28 2.33333 28H25.6667ZM14 14C12.1435 14 10.363 13.2625 9.05025 11.9497C7.7375 10.637 7 8.85652 7 7C7 5.14348 7.7375 3.36301 9.05025 2.05025C10.363 0.737498 12.1435 0 14 0C15.8565 0 17.637 0.737498 18.9497 2.05025C20.2625 3.36301 21 5.14348 21 7C21 8.85652 20.2625 10.637 18.9497 11.9497C17.637 13.2625 15.8565 14 14 14V14Z" fill="white"/>
</svg>
