<svg width="116" height="22" viewBox="0 0 116 22" fill="none" xmlns="http://www.w3.org/2000/svg">
<path d="M15.8748 0.0705833C16.9913 0.121917 17.7632 0.286 18.4763 0.562833C19.1525 0.81566 19.7647 1.21439 20.2693 1.73067C20.7856 2.23528 21.1843 2.84746 21.4372 3.52367C21.714 4.23775 21.8781 5.00867 21.9294 6.12517C21.9927 7.50933 22 7.997 22 11C22 14.003 21.9927 14.4907 21.9294 15.8748C21.8781 16.9913 21.714 17.7632 21.4372 18.4773C21.1842 19.1531 20.7855 19.765 20.2693 20.2693C19.7647 20.7856 19.1526 21.1844 18.4763 21.4372C17.7623 21.714 16.9913 21.8781 15.8748 21.9294C14.4907 21.9927 14.0039 22 11 22C7.99608 22 7.50842 21.9927 6.12517 21.9294C5.00867 21.8781 4.23683 21.714 3.52275 21.4372C2.84686 21.1842 2.235 20.7855 1.73067 20.2693C1.21439 19.7647 0.81566 19.1525 0.562833 18.4763C0.286 17.7623 0.121917 16.9913 0.0705833 15.8748C0.00733333 14.4925 0 14.0048 0 11C0 7.99608 0.00733333 7.5075 0.0705833 6.12517C0.121917 5.00867 0.286 4.23683 0.562833 3.52367C0.81566 2.84746 1.21439 2.23528 1.73067 1.73067C2.23501 1.2145 2.84687 0.815779 3.52275 0.562833C4.23775 0.286 5.00867 0.121917 6.12517 0.0705833C7.5075 0.00733333 7.99517 0 11 0C14.0039 0 14.4925 0.00733333 15.8748 0.0705833V0.0705833ZM11 2.44475C8.03 2.44475 7.57533 2.45117 6.23608 2.51258C5.38633 2.55108 4.87667 2.65925 4.40825 2.84167C4.0095 2.9975 3.75558 3.1625 3.45858 3.45858C3.16158 3.75558 2.99658 4.0095 2.84167 4.40825C2.66017 4.87575 2.55108 5.38633 2.51258 6.23608C2.45117 7.57533 2.44475 8.03 2.44475 11C2.44475 13.97 2.45117 14.4247 2.51258 15.7639C2.55108 16.6137 2.65925 17.1233 2.84167 17.5908C2.9975 17.9905 3.1625 18.2444 3.45858 18.5414C3.75558 18.8384 4.0095 19.0034 4.40825 19.1583C4.87575 19.3398 5.38633 19.4489 6.23608 19.4874C7.57625 19.5488 8.03092 19.5553 11 19.5553C13.97 19.5553 14.4238 19.5488 15.7639 19.4874C16.6137 19.4489 17.1233 19.3408 17.5918 19.1583C17.9905 19.0025 18.2444 18.8375 18.5414 18.5414C18.8384 18.2444 19.0034 17.9905 19.1583 17.5918C19.3398 17.1243 19.4489 16.6137 19.4874 15.7639C19.5488 14.4238 19.5553 13.9691 19.5553 11C19.5553 8.03092 19.5488 7.57625 19.4874 6.23608C19.4489 5.38633 19.3408 4.87667 19.1583 4.40917C19.0287 4.04899 18.8176 3.72366 18.5414 3.45858C18.2764 3.1824 17.951 2.97126 17.5908 2.84167C17.1233 2.66017 16.6127 2.55108 15.763 2.51258C14.4237 2.45117 13.9691 2.44475 10.9991 2.44475H11ZM11 16.7035C9.48734 16.7035 8.03663 16.1026 6.96702 15.033C5.8974 13.9634 5.2965 12.5127 5.2965 11C5.2965 9.48734 5.8974 8.03663 6.96702 6.96702C8.03663 5.8974 9.48734 5.2965 11 5.2965C12.5127 5.2965 13.9634 5.8974 15.033 6.96702C16.1026 8.03663 16.7035 9.48734 16.7035 11C16.7035 12.5127 16.1026 13.9634 15.033 15.033C13.9634 16.1026 12.5127 16.7035 11 16.7035V16.7035ZM11 14.2597C11.8645 14.2597 12.6936 13.9162 13.3049 13.3049C13.9162 12.6936 14.2597 11.8645 14.2597 11C14.2597 10.1355 13.9162 9.30637 13.3049 8.69507C12.6936 8.08376 11.8645 7.74033 11 7.74033C10.1355 7.74033 9.30637 8.08376 8.69507 8.69507C8.08376 9.30637 7.74033 10.1355 7.74033 11C7.74033 11.8645 8.08376 12.6936 8.69507 13.3049C9.30637 13.9162 10.1355 14.2597 11 14.2597V14.2597ZM16.7035 6.51842C16.3793 6.51842 16.0684 6.38963 15.8392 6.16039C15.6099 5.93115 15.4811 5.62024 15.4811 5.29604C15.4811 4.97185 15.6099 4.66093 15.8392 4.43169C16.0684 4.20245 16.3793 4.07367 16.7035 4.07367C17.0277 4.07367 17.3386 4.20245 17.5678 4.43169C17.7971 4.66093 17.9259 4.97185 17.9259 5.29604C17.9259 5.62024 17.7971 5.93115 17.5678 6.16039C17.3386 6.38963 17.0277 6.51842 16.7035 6.51842Z" fill="white"/>
<path d="M27.1094 8.0752C26.998 8.0752 26.8691 8.0957 26.7227 8.13672C26.5762 8.17188 26.4238 8.21582 26.2656 8.26855C26.1074 8.31543 25.9492 8.35938 25.791 8.40039C25.6387 8.43555 25.501 8.45312 25.3779 8.45312C25.249 8.45312 25.1465 8.43262 25.0703 8.3916C25 8.34473 24.9473 8.28613 24.9121 8.21582C24.877 8.14551 24.8564 8.06934 24.8506 7.9873C24.8447 7.90527 24.8418 7.82617 24.8418 7.75C24.8418 7.52734 24.9062 7.3457 25.0352 7.20508C25.1699 7.06445 25.3604 6.94727 25.6064 6.85352C25.8525 6.75391 26.1484 6.67188 26.4941 6.60742C26.8457 6.53711 27.2412 6.46094 27.6807 6.37891C28.3721 6.25 29.002 6.15039 29.5703 6.08008C30.1445 6.00977 30.6895 5.95996 31.2051 5.93066C31.7266 5.89551 32.2363 5.875 32.7344 5.86914C33.2324 5.86328 33.7568 5.86035 34.3076 5.86035C34.4717 5.86035 34.6006 5.88086 34.6943 5.92188C34.7881 5.96289 34.8555 6.01562 34.8965 6.08008C34.9434 6.14453 34.9697 6.21777 34.9756 6.2998C34.9873 6.38184 34.9932 6.46387 34.9932 6.5459C34.9932 6.63965 34.9785 6.74219 34.9492 6.85352C34.9258 6.95898 34.8818 7.05859 34.8174 7.15234C34.7588 7.24023 34.6768 7.31348 34.5713 7.37207C34.4717 7.43066 34.3486 7.45996 34.2021 7.45996H33.499C33.2178 7.45996 32.9189 7.46289 32.6025 7.46875C32.2861 7.46875 31.9727 7.47461 31.6621 7.48633C31.3516 7.49219 31.0527 7.50391 30.7656 7.52148C30.4844 7.53906 30.2324 7.56543 30.0098 7.60059C29.793 7.62988 29.6201 7.66797 29.4912 7.71484C29.3623 7.76172 29.2979 7.82031 29.2979 7.89062C29.2979 7.96094 29.3242 8.07812 29.377 8.24219C29.4297 8.40625 29.4941 8.58496 29.5703 8.77832C29.6465 8.96582 29.7227 9.15332 29.7988 9.34082C29.8809 9.52246 29.9482 9.6748 30.001 9.79785C30.0479 9.89746 30.1006 9.96484 30.1592 10C30.2178 10.0352 30.2969 10.0527 30.3965 10.0527C30.6367 10.0527 30.8828 10.0381 31.1348 10.0088C31.3867 9.97949 31.6387 9.94727 31.8906 9.91211C32.1484 9.87109 32.4033 9.83594 32.6553 9.80664C32.9131 9.77734 33.168 9.7627 33.4199 9.7627C33.5605 9.7627 33.6748 9.78906 33.7627 9.8418C33.8564 9.88867 33.9297 9.9502 33.9824 10.0264C34.0352 10.0967 34.0703 10.1729 34.0879 10.2549C34.1113 10.3369 34.123 10.4072 34.123 10.4658C34.123 10.7295 34.041 10.9287 33.877 11.0635C33.7129 11.1924 33.4902 11.2891 33.209 11.3535C32.9277 11.418 32.5996 11.4619 32.2246 11.4854C31.8555 11.5088 31.4629 11.541 31.0469 11.582L30.8359 11.5996C30.7598 11.6113 30.7012 11.6377 30.6602 11.6787C30.6191 11.7197 30.5986 11.7725 30.5986 11.8369C30.5986 11.8545 30.6016 11.8691 30.6074 11.8809C30.6133 11.8926 30.6162 11.9072 30.6162 11.9248C30.6689 12.1182 30.7305 12.335 30.8008 12.5752C30.8711 12.8096 30.9355 13.0439 30.9941 13.2783C31.0586 13.5127 31.1113 13.7354 31.1523 13.9463C31.1934 14.1572 31.2139 14.3301 31.2139 14.4648C31.2139 14.7344 31.1113 14.9395 30.9062 15.0801C30.707 15.2207 30.4229 15.291 30.0537 15.291C29.9189 15.291 29.7871 15.2588 29.6582 15.1943C29.5352 15.1357 29.459 15.0244 29.4297 14.8604C29.3359 14.3799 29.2305 13.9111 29.1133 13.4541C28.9961 12.9912 28.873 12.5312 28.7441 12.0742C28.6914 11.916 28.5889 11.8369 28.4365 11.8369C28.2607 11.8369 28.0615 11.8311 27.8389 11.8193C27.6221 11.8076 27.3994 11.7842 27.1709 11.749C26.9424 11.7139 26.7197 11.6699 26.5029 11.6172C26.292 11.5586 26.1016 11.4824 25.9316 11.3887C25.7676 11.2949 25.6328 11.1836 25.5273 11.0547C25.4277 10.9258 25.3779 10.7734 25.3779 10.5977C25.3779 10.4863 25.4043 10.3779 25.457 10.2725C25.5098 10.1611 25.5771 10.0645 25.6592 9.98242C25.7412 9.89453 25.8291 9.82422 25.9229 9.77148C26.0225 9.71875 26.1162 9.69238 26.2041 9.69238C26.3096 9.69238 26.4238 9.71875 26.5469 9.77148C26.6699 9.82422 26.8018 9.88281 26.9424 9.94727C27.083 10.0117 27.2324 10.0703 27.3906 10.123C27.5547 10.1758 27.7305 10.2021 27.918 10.2021C28.0117 10.2021 28.0586 10.1523 28.0586 10.0527C28.0586 9.95898 28.041 9.83594 28.0059 9.68359C27.9766 9.53125 27.9355 9.37305 27.8828 9.20898C27.8301 9.03906 27.7686 8.875 27.6982 8.7168C27.6338 8.55273 27.5635 8.41504 27.4873 8.30371C27.4404 8.2334 27.3906 8.17773 27.3379 8.13672C27.291 8.0957 27.2148 8.0752 27.1094 8.0752ZM39.1064 15.5986C38.4678 15.5986 37.8789 15.4902 37.3398 15.2734C36.8066 15.0566 36.3467 14.7549 35.96 14.3682C35.5732 13.9756 35.2715 13.5098 35.0547 12.9707C34.8379 12.4316 34.7295 11.8369 34.7295 11.1865C34.7295 10.835 34.7588 10.498 34.8174 10.1758C34.8818 9.84766 34.9668 9.54297 35.0723 9.26172C35.1191 9.15039 35.1426 9.07129 35.1426 9.02441C35.1426 8.96582 35.1279 8.91016 35.0986 8.85742C35.0693 8.80469 35.0371 8.74902 35.002 8.69043C34.9668 8.63184 34.9346 8.57031 34.9053 8.50586C34.876 8.44141 34.8613 8.36816 34.8613 8.28613C34.8613 8.04004 35.002 7.7998 35.2832 7.56543C35.5645 7.3252 35.9365 7.11426 36.3994 6.93262C36.8623 6.74512 37.3867 6.5957 37.9727 6.48438C38.5586 6.36719 39.1592 6.30859 39.7744 6.30859C40.5303 6.30859 41.21 6.40527 41.8135 6.59863C42.4229 6.79199 42.9385 7.07031 43.3604 7.43359C43.7881 7.79102 44.1162 8.22754 44.3447 8.74316C44.5732 9.25879 44.6875 9.83887 44.6875 10.4834C44.6875 11.2041 44.5439 11.8779 44.2568 12.5049C43.9697 13.126 43.5742 13.665 43.0703 14.1221C42.5723 14.5791 41.9834 14.9395 41.3037 15.2031C40.624 15.4668 39.8916 15.5986 39.1064 15.5986ZM42.9209 10.8262C42.9209 10.3691 42.8418 9.95898 42.6836 9.5957C42.5254 9.23242 42.2969 8.92773 41.998 8.68164C41.6992 8.42969 41.3301 8.23926 40.8906 8.11035C40.457 7.97559 39.9648 7.9082 39.4141 7.9082C38.4473 7.9082 37.7178 8.1543 37.2256 8.64648C36.7393 9.13281 36.4961 9.85938 36.4961 10.8262C36.4961 11.2949 36.5693 11.7256 36.7158 12.1182C36.8623 12.5049 37.0674 12.8389 37.3311 13.1201C37.5947 13.3955 37.9082 13.6123 38.2715 13.7705C38.6406 13.9229 39.0449 13.999 39.4844 13.999C39.9883 13.999 40.4512 13.9229 40.873 13.7705C41.2949 13.6123 41.6553 13.3926 41.9541 13.1113C42.2588 12.8301 42.4961 12.4961 42.666 12.1094C42.8359 11.7168 42.9209 11.2891 42.9209 10.8262ZM48.0801 15.0977C47.9102 15.127 47.7578 15.1592 47.623 15.1943C47.4883 15.2354 47.3213 15.2559 47.1221 15.2559C46.9053 15.2559 46.7383 15.1943 46.6211 15.0713C46.5039 14.9482 46.4453 14.8105 46.4453 14.6582C46.4453 14.5352 46.4658 14.377 46.5068 14.1836C46.5479 13.9844 46.5684 13.7852 46.5684 13.5859C46.5273 12.8301 46.4717 12.083 46.4014 11.3447C46.3369 10.6006 46.2725 9.9209 46.208 9.30566C46.1436 8.69043 46.0879 8.16602 46.041 7.73242C45.9941 7.29297 45.9707 6.99414 45.9707 6.83594C45.9707 6.73047 45.9971 6.63379 46.0498 6.5459C46.1025 6.45215 46.1758 6.37012 46.2695 6.2998C46.3633 6.22949 46.4717 6.17676 46.5947 6.1416C46.7236 6.10059 46.8584 6.08008 46.999 6.08008C47.2744 6.08008 47.4766 6.12402 47.6055 6.21191C47.7344 6.29395 47.8135 6.42871 47.8428 6.61621C48.0068 7.87598 48.124 9.0332 48.1943 10.0879C48.2705 11.1367 48.3232 12.1211 48.3525 13.041C48.3525 13.1758 48.3877 13.2783 48.458 13.3486C48.5342 13.4189 48.6309 13.4541 48.748 13.4541C48.9824 13.4541 49.2197 13.4424 49.46 13.4189C49.7002 13.3896 49.9404 13.3604 50.1807 13.3311C50.4209 13.3018 50.6582 13.2754 50.8926 13.252C51.1328 13.2227 51.3643 13.208 51.5869 13.208C51.7334 13.208 51.8506 13.2256 51.9385 13.2607C52.0322 13.2959 52.1025 13.3428 52.1494 13.4014C52.2021 13.46 52.2344 13.5273 52.2461 13.6035C52.2637 13.6738 52.2725 13.7441 52.2725 13.8145C52.2725 13.9258 52.2607 14.0371 52.2373 14.1484C52.2139 14.2598 52.1729 14.3623 52.1143 14.4561C52.0557 14.5439 51.9766 14.6172 51.877 14.6758C51.7773 14.7402 51.6514 14.7783 51.499 14.79C50.7783 14.8604 50.1191 14.9131 49.5215 14.9482C48.9297 14.9834 48.4492 15.0332 48.0801 15.0977ZM54.6719 15.0977C54.502 15.127 54.3496 15.1592 54.2148 15.1943C54.0801 15.2354 53.9131 15.2559 53.7139 15.2559C53.4971 15.2559 53.3301 15.1943 53.2129 15.0713C53.0957 14.9482 53.0371 14.8105 53.0371 14.6582C53.0371 14.5352 53.0576 14.377 53.0986 14.1836C53.1396 13.9844 53.1602 13.7852 53.1602 13.5859C53.1191 12.8301 53.0635 12.083 52.9932 11.3447C52.9287 10.6006 52.8643 9.9209 52.7998 9.30566C52.7354 8.69043 52.6797 8.16602 52.6328 7.73242C52.5859 7.29297 52.5625 6.99414 52.5625 6.83594C52.5625 6.73047 52.5889 6.63379 52.6416 6.5459C52.6943 6.45215 52.7676 6.37012 52.8613 6.2998C52.9551 6.22949 53.0635 6.17676 53.1865 6.1416C53.3154 6.10059 53.4502 6.08008 53.5908 6.08008C53.8662 6.08008 54.0684 6.12402 54.1973 6.21191C54.3262 6.29395 54.4053 6.42871 54.4346 6.61621C54.5986 7.87598 54.7158 9.0332 54.7861 10.0879C54.8623 11.1367 54.915 12.1211 54.9443 13.041C54.9443 13.1758 54.9795 13.2783 55.0498 13.3486C55.126 13.4189 55.2227 13.4541 55.3398 13.4541C55.5742 13.4541 55.8115 13.4424 56.0518 13.4189C56.292 13.3896 56.5322 13.3604 56.7725 13.3311C57.0127 13.3018 57.25 13.2754 57.4844 13.252C57.7246 13.2227 57.9561 13.208 58.1787 13.208C58.3252 13.208 58.4424 13.2256 58.5303 13.2607C58.624 13.2959 58.6943 13.3428 58.7412 13.4014C58.7939 13.46 58.8262 13.5273 58.8379 13.6035C58.8555 13.6738 58.8643 13.7441 58.8643 13.8145C58.8643 13.9258 58.8525 14.0371 58.8291 14.1484C58.8057 14.2598 58.7646 14.3623 58.7061 14.4561C58.6475 14.5439 58.5684 14.6172 58.4688 14.6758C58.3691 14.7402 58.2432 14.7783 58.0908 14.79C57.3701 14.8604 56.7109 14.9131 56.1133 14.9482C55.5215 14.9834 55.041 15.0332 54.6719 15.0977ZM63.1357 15.5986C62.4971 15.5986 61.9082 15.4902 61.3691 15.2734C60.8359 15.0566 60.376 14.7549 59.9893 14.3682C59.6025 13.9756 59.3008 13.5098 59.084 12.9707C58.8672 12.4316 58.7588 11.8369 58.7588 11.1865C58.7588 10.835 58.7881 10.498 58.8467 10.1758C58.9111 9.84766 58.9961 9.54297 59.1016 9.26172C59.1484 9.15039 59.1719 9.07129 59.1719 9.02441C59.1719 8.96582 59.1572 8.91016 59.1279 8.85742C59.0986 8.80469 59.0664 8.74902 59.0312 8.69043C58.9961 8.63184 58.9639 8.57031 58.9346 8.50586C58.9053 8.44141 58.8906 8.36816 58.8906 8.28613C58.8906 8.04004 59.0312 7.7998 59.3125 7.56543C59.5938 7.3252 59.9658 7.11426 60.4287 6.93262C60.8916 6.74512 61.416 6.5957 62.002 6.48438C62.5879 6.36719 63.1885 6.30859 63.8037 6.30859C64.5596 6.30859 65.2393 6.40527 65.8428 6.59863C66.4521 6.79199 66.9678 7.07031 67.3896 7.43359C67.8174 7.79102 68.1455 8.22754 68.374 8.74316C68.6025 9.25879 68.7168 9.83887 68.7168 10.4834C68.7168 11.2041 68.5732 11.8779 68.2861 12.5049C67.999 13.126 67.6035 13.665 67.0996 14.1221C66.6016 14.5791 66.0127 14.9395 65.333 15.2031C64.6533 15.4668 63.9209 15.5986 63.1357 15.5986ZM66.9502 10.8262C66.9502 10.3691 66.8711 9.95898 66.7129 9.5957C66.5547 9.23242 66.3262 8.92773 66.0273 8.68164C65.7285 8.42969 65.3594 8.23926 64.9199 8.11035C64.4863 7.97559 63.9941 7.9082 63.4434 7.9082C62.4766 7.9082 61.7471 8.1543 61.2549 8.64648C60.7686 9.13281 60.5254 9.85938 60.5254 10.8262C60.5254 11.2949 60.5986 11.7256 60.7451 12.1182C60.8916 12.5049 61.0967 12.8389 61.3604 13.1201C61.624 13.3955 61.9375 13.6123 62.3008 13.7705C62.6699 13.9229 63.0742 13.999 63.5137 13.999C64.0176 13.999 64.4805 13.9229 64.9023 13.7705C65.3242 13.6123 65.6846 13.3926 65.9834 13.1113C66.2881 12.8301 66.5254 12.4961 66.6953 12.1094C66.8652 11.7168 66.9502 11.2891 66.9502 10.8262ZM69.3936 6.7041C69.3936 6.3291 69.5957 6.10059 70 6.01855L70.3779 5.94824C70.4189 5.93652 70.4541 5.93066 70.4834 5.93066C70.5186 5.93066 70.5508 5.93066 70.5801 5.93066C70.9375 5.93066 71.1484 6.13574 71.2129 6.5459C71.2363 6.74512 71.2656 6.99707 71.3008 7.30176C71.3359 7.60645 71.3799 7.94043 71.4326 8.30371C71.4912 8.66699 71.5557 9.04785 71.626 9.44629C71.7021 9.84473 71.7871 10.2373 71.8809 10.624C71.9746 11.0049 72.0801 11.3682 72.1973 11.7139C72.3145 12.0596 72.4463 12.3643 72.5928 12.6279C72.7393 12.8916 72.8975 13.1025 73.0674 13.2607C73.2432 13.4131 73.4336 13.4893 73.6387 13.4893C73.7852 13.4893 73.9316 13.4453 74.0781 13.3574C74.2305 13.2695 74.3799 13.1553 74.5264 13.0146C74.6729 12.8682 74.8135 12.7041 74.9482 12.5225C75.083 12.3408 75.2061 12.1562 75.3174 11.9688C75.4287 11.7812 75.5283 11.6025 75.6162 11.4326C75.71 11.2568 75.7832 11.1045 75.8359 10.9756C75.8711 10.8643 75.8887 10.7617 75.8887 10.668C75.8887 10.6211 75.8857 10.5742 75.8799 10.5273C75.874 10.4805 75.8652 10.4307 75.8535 10.3779C75.7422 10.0146 75.6572 9.65137 75.5986 9.28809C75.54 8.9248 75.5107 8.53223 75.5107 8.11035C75.5107 7.86426 75.5312 7.62109 75.5723 7.38086C75.6133 7.14062 75.6836 6.9209 75.7832 6.72168C75.8359 6.61621 75.915 6.52539 76.0205 6.44922C76.126 6.37305 76.2402 6.31152 76.3633 6.26465C76.4922 6.21777 76.624 6.18555 76.7588 6.16797C76.8994 6.14453 77.0283 6.13281 77.1455 6.13281C77.2744 6.13281 77.3916 6.15918 77.4971 6.21191C77.6025 6.25879 77.6963 6.34082 77.7783 6.45801C77.9424 6.68066 78.0566 6.93555 78.1211 7.22266C78.1914 7.50977 78.2266 7.7998 78.2266 8.09277C78.2266 8.40918 78.1973 8.73438 78.1387 9.06836C78.0801 9.39648 78.0098 9.72461 77.9277 10.0527C77.8867 10.1348 77.8662 10.2256 77.8662 10.3252C77.8662 10.3721 77.8721 10.4219 77.8838 10.4746C77.9014 10.5273 77.9219 10.5859 77.9453 10.6504C78.0508 10.9258 78.1738 11.207 78.3145 11.4941C78.4609 11.7754 78.6279 12.0303 78.8154 12.2588C79.0029 12.4873 79.2139 12.6748 79.4482 12.8213C79.6826 12.9678 79.9492 13.041 80.248 13.041C80.5117 13.041 80.749 12.9297 80.96 12.707C81.1709 12.4844 81.3467 12.2031 81.4873 11.8633C81.6338 11.5234 81.7451 11.1543 81.8213 10.7559C81.8975 10.3516 81.9355 9.96777 81.9355 9.60449C81.9355 9.21777 81.9209 8.83691 81.8916 8.46191C81.8623 8.08691 81.8242 7.74121 81.7773 7.4248C81.7656 7.39551 81.7598 7.36621 81.7598 7.33691C81.7598 7.30762 81.7598 7.27832 81.7598 7.24902C81.7598 6.91504 81.9385 6.68652 82.2959 6.56348L82.6914 6.43164C82.8027 6.39648 82.9053 6.37891 82.999 6.37891C83.3096 6.37891 83.4971 6.57227 83.5615 6.95898C83.626 7.32227 83.6758 7.68555 83.7109 8.04883C83.752 8.41211 83.7725 8.77539 83.7725 9.13867C83.7725 9.91211 83.6816 10.6387 83.5 11.3184C83.3184 11.998 83.0635 12.5928 82.7354 13.1025C82.4131 13.6064 82.0293 14.0049 81.584 14.2979C81.1387 14.5908 80.6494 14.7373 80.1162 14.7373C79.5947 14.7373 79.0703 14.582 78.543 14.2715C78.0156 13.9551 77.5381 13.4541 77.1104 12.7686C77.0283 12.6162 76.9346 12.54 76.8291 12.54C76.7295 12.54 76.6387 12.6162 76.5566 12.7686C76.3516 13.1318 76.126 13.4688 75.8799 13.7793C75.6338 14.084 75.373 14.3477 75.0977 14.5703C74.8223 14.793 74.5352 14.9658 74.2363 15.0889C73.9375 15.2119 73.6357 15.2734 73.3311 15.2734C72.8389 15.2734 72.4053 15.1387 72.0303 14.8691C71.6611 14.6055 71.3389 14.251 71.0635 13.8057C70.7939 13.3604 70.5654 12.8506 70.3779 12.2764C70.1904 11.6963 70.0322 11.0957 69.9033 10.4746C69.7803 9.84766 69.6777 9.2207 69.5957 8.59375C69.5195 7.9668 69.4521 7.38086 69.3936 6.83594V6.7041ZM97.9404 9.70996C97.8701 9.70996 97.8086 9.76562 97.7559 9.87695C97.5332 10.3105 97.2959 10.7031 97.0439 11.0547C96.7979 11.4062 96.5488 11.7051 96.2969 11.9512C96.0449 12.1973 95.7959 12.3877 95.5498 12.5225C95.3037 12.6514 95.0723 12.7158 94.8555 12.7158C94.6445 12.7158 94.4482 12.6719 94.2666 12.584C94.0908 12.4902 93.8975 12.3174 93.6865 12.0654C93.4814 11.8135 93.2441 11.4648 92.9746 11.0195C92.7109 10.5742 92.3857 9.99414 91.999 9.2793C91.9346 9.16211 91.8672 9.07715 91.7969 9.02441C91.7324 8.96582 91.6738 8.93652 91.6211 8.93652C91.5449 8.93652 91.4746 9.01855 91.4102 9.18262C91.3457 9.34082 91.29 9.56641 91.2432 9.85938C91.1963 10.1465 91.1582 10.4951 91.1289 10.9053C91.1055 11.3096 91.0938 11.7578 91.0938 12.25C91.0938 12.543 91.1084 12.8359 91.1377 13.1289C91.1729 13.4219 91.1904 13.7236 91.1904 14.0342C91.1904 14.1396 91.1611 14.2393 91.1025 14.333C91.0439 14.4209 90.9648 14.4971 90.8652 14.5615C90.7715 14.6318 90.6572 14.6875 90.5225 14.7285C90.3936 14.7695 90.2559 14.79 90.1094 14.79C89.8164 14.79 89.6055 14.6143 89.4766 14.2627C89.3477 13.9111 89.2832 13.3486 89.2832 12.5752C89.2832 11.5967 89.3359 10.709 89.4414 9.91211C89.5527 9.10938 89.708 8.42383 89.9072 7.85547C90.1123 7.28125 90.3525 6.83887 90.6279 6.52832C90.9092 6.21191 91.2227 6.05371 91.5684 6.05371C91.873 6.05371 92.1631 6.22949 92.4385 6.58105C92.7197 6.92676 93.0215 7.48926 93.3438 8.26855C93.4727 8.58496 93.6104 8.88086 93.7568 9.15625C93.9092 9.43164 94.0586 9.67188 94.2051 9.87695C94.3574 10.0762 94.5039 10.2344 94.6445 10.3516C94.7852 10.4629 94.9111 10.5186 95.0225 10.5186C95.1338 10.5186 95.2393 10.4951 95.3389 10.4482C95.4443 10.3955 95.5615 10.2871 95.6904 10.123C95.8252 9.95312 95.9805 9.70703 96.1562 9.38477C96.3379 9.0625 96.5605 8.63184 96.8242 8.09277C96.9648 7.81152 97.0908 7.57715 97.2021 7.38965C97.3135 7.20215 97.4248 7.05273 97.5361 6.94141C97.6475 6.82422 97.7646 6.74219 97.8877 6.69531C98.0107 6.64258 98.1484 6.61621 98.3008 6.61621C98.4824 6.61621 98.6611 6.71289 98.8369 6.90625C99.0127 7.09961 99.1826 7.35742 99.3467 7.67969C99.5166 8.00195 99.6807 8.37695 99.8389 8.80469C99.9971 9.23242 100.149 9.68066 100.296 10.1494C100.448 10.6182 100.595 11.0957 100.735 11.582C100.882 12.0625 101.022 12.5195 101.157 12.9531C101.192 13.082 101.216 13.1729 101.228 13.2256C101.245 13.2725 101.254 13.3311 101.254 13.4014C101.254 13.501 101.222 13.6006 101.157 13.7002C101.099 13.7939 101.02 13.8789 100.92 13.9551C100.82 14.0312 100.706 14.0928 100.577 14.1396C100.454 14.1865 100.331 14.21 100.208 14.21C100.044 14.21 99.915 14.1924 99.8213 14.1572C99.7334 14.1162 99.6631 14.0459 99.6104 13.9463C99.5811 13.8936 99.5312 13.7529 99.4609 13.5244C99.3906 13.2959 99.3057 13.0264 99.2061 12.7158C99.1123 12.3994 99.0068 12.0654 98.8896 11.7139C98.7783 11.3623 98.6641 11.04 98.5469 10.7471C98.4355 10.4482 98.3271 10.2021 98.2217 10.0088C98.1162 9.80957 98.0225 9.70996 97.9404 9.70996ZM102.59 12.3379C102.572 12.3379 102.543 12.3408 102.502 12.3467C102.467 12.3525 102.426 12.3584 102.379 12.3643C102.338 12.3701 102.297 12.376 102.256 12.3818C102.215 12.3877 102.183 12.3906 102.159 12.3906C101.995 12.3906 101.852 12.3232 101.729 12.1885C101.605 12.0479 101.544 11.8633 101.544 11.6348C101.544 11.4824 101.594 11.3359 101.693 11.1953C101.793 11.0547 101.948 10.9375 102.159 10.8438C102.224 10.8145 102.273 10.7822 102.309 10.7471C102.35 10.7061 102.37 10.6504 102.37 10.5801C102.37 10.3926 102.364 10.1934 102.353 9.98242C102.347 9.76562 102.335 9.51367 102.317 9.22656C102.312 9.16797 102.291 9.1123 102.256 9.05957C102.227 9.00684 102.191 8.94824 102.15 8.88379C102.115 8.81348 102.083 8.7373 102.054 8.65527C102.024 8.57324 102.01 8.4707 102.01 8.34766C102.01 8.23633 102.024 8.11035 102.054 7.96973C102.089 7.82324 102.156 7.68848 102.256 7.56543C102.361 7.43652 102.505 7.33105 102.687 7.24902C102.874 7.16113 103.117 7.11719 103.416 7.11719C103.539 7.11719 103.642 7.12891 103.724 7.15234C103.806 7.17578 103.876 7.20508 103.935 7.24023C103.999 7.26953 104.055 7.2959 104.102 7.31934C104.154 7.34277 104.207 7.35449 104.26 7.35449C104.354 7.35449 104.541 7.33691 104.822 7.30176C105.104 7.2666 105.44 7.2168 105.833 7.15234C106.231 7.08789 106.668 7.01465 107.143 6.93262C107.623 6.85059 108.109 6.7627 108.602 6.66895C109.094 6.56934 109.574 6.46973 110.043 6.37012C110.512 6.27051 110.937 6.17383 111.317 6.08008C111.435 6.05078 111.537 6.03613 111.625 6.03613C111.748 6.03613 111.845 6.06543 111.915 6.12402C111.991 6.17676 112.047 6.24414 112.082 6.32617C112.117 6.4082 112.138 6.50195 112.144 6.60742C112.155 6.70703 112.161 6.80078 112.161 6.88867C112.161 7.04102 112.108 7.18457 112.003 7.31934C111.903 7.44824 111.736 7.55078 111.502 7.62695C110.922 7.79688 110.336 7.94629 109.744 8.0752C109.158 8.19824 108.566 8.3125 107.969 8.41797C107.371 8.51758 106.771 8.6084 106.167 8.69043C105.563 8.77246 104.963 8.85449 104.365 8.93652C104.283 8.94824 104.222 8.98047 104.181 9.0332C104.14 9.08008 104.119 9.14453 104.119 9.22656V9.58691C104.119 9.68652 104.122 9.78906 104.128 9.89453C104.134 10 104.146 10.0967 104.163 10.1846C104.187 10.2725 104.216 10.3457 104.251 10.4043C104.286 10.457 104.333 10.4834 104.392 10.4834C104.532 10.4834 104.749 10.4541 105.042 10.3955C105.341 10.3369 105.675 10.2666 106.044 10.1846C106.419 10.0967 106.809 10.0029 107.213 9.90332C107.623 9.79785 108.01 9.7041 108.373 9.62207C108.736 9.53418 109.056 9.46094 109.331 9.40234C109.606 9.34375 109.8 9.31445 109.911 9.31445C110.075 9.31445 110.198 9.37598 110.28 9.49902C110.368 9.61621 110.427 9.76562 110.456 9.94727C110.456 9.97656 110.459 10.0029 110.465 10.0264C110.471 10.0498 110.474 10.0762 110.474 10.1055C110.474 10.2754 110.421 10.4336 110.315 10.5801C110.216 10.7207 110.034 10.8262 109.771 10.8965C109.7 10.9199 109.56 10.958 109.349 11.0107C109.138 11.0576 108.889 11.1162 108.602 11.1865C108.314 11.251 108.004 11.3213 107.67 11.3975C107.336 11.4736 107.008 11.5498 106.686 11.626C106.363 11.6963 106.062 11.7666 105.78 11.8369C105.505 11.9014 105.279 11.9541 105.104 11.9951C104.945 12.0361 104.849 12.0684 104.813 12.0918C104.784 12.1152 104.77 12.1445 104.77 12.1797C104.781 12.3086 104.846 12.4287 104.963 12.54C105.086 12.6514 105.238 12.7539 105.42 12.8477C105.607 12.9414 105.815 13.0264 106.044 13.1025C106.278 13.1787 106.519 13.2432 106.765 13.2959C107.017 13.3428 107.263 13.3809 107.503 13.4102C107.743 13.4395 107.966 13.4541 108.171 13.4541C108.259 13.4541 108.385 13.4541 108.549 13.4541C108.713 13.4541 108.892 13.4512 109.085 13.4453C109.284 13.4336 109.486 13.4189 109.691 13.4014C109.902 13.3838 110.09 13.3604 110.254 13.3311C110.424 13.2959 110.562 13.2549 110.667 13.208C110.778 13.1553 110.834 13.0938 110.834 13.0234C110.834 12.959 110.811 12.8916 110.764 12.8213C110.723 12.751 110.702 12.6748 110.702 12.5928C110.702 12.4756 110.734 12.3613 110.799 12.25C110.863 12.1328 110.945 12.0303 111.045 11.9424C111.15 11.8486 111.268 11.7754 111.396 11.7227C111.531 11.6641 111.666 11.6348 111.801 11.6348C111.971 11.6348 112.126 11.6699 112.267 11.7402C112.407 11.8047 112.527 11.8926 112.627 12.0039C112.732 12.1094 112.812 12.2324 112.864 12.373C112.923 12.5137 112.952 12.6572 112.952 12.8037C112.952 13.1904 112.809 13.5244 112.521 13.8057C112.24 14.0869 111.871 14.3184 111.414 14.5C110.957 14.6875 110.441 14.8252 109.867 14.9131C109.293 15.0068 108.716 15.0537 108.136 15.0537C107.456 15.0537 106.835 15.0068 106.272 14.9131C105.71 14.8252 105.206 14.6816 104.761 14.4824C104.315 14.2832 103.932 14.0254 103.609 13.709C103.287 13.3867 103.023 12.9971 102.818 12.54C102.748 12.4053 102.672 12.3379 102.59 12.3379Z" fill="white"/>
</svg>
