<svg width="298" height="69" viewBox="0 0 298 69" fill="none" xmlns="http://www.w3.org/2000/svg">
<path d="M3.744 6.328C3.552 6.712 3.432 6.928 3.384 6.976C3.336 6.976 3.216 6.832 3.024 6.544C2.64 6.16 2.448 5.632 2.448 4.96C2.496 4.24 2.952 3.616 3.816 3.088C4.728 2.56 5.928 2.176 7.416 1.936C8.904 1.648 10.608 1.504 12.528 1.504C14.496 1.504 16.56 1.648 18.72 1.936C19.968 2.128 21.144 2.296 22.248 2.44C23.352 2.536 24.024 2.584 24.264 2.584C24.936 2.584 25.656 2.464 26.424 2.224C27.192 1.936 27.792 1.6 28.224 1.216C28.608 0.831996 29.088 0.711997 29.664 0.855998C30.24 0.951996 30.528 1.216 30.528 1.648C30.528 2.032 30.336 2.392 29.952 2.728C29.568 3.016 29.064 3.28 28.44 3.52C27.816 3.712 27.096 3.856 26.28 3.952C25.464 4.048 24.624 4.048 23.76 3.952C22.8 3.856 22.224 3.856 22.032 3.952C21.84 4 21.648 4.24 21.456 4.672C21.408 4.96 21.288 5.704 21.096 6.904C20.952 8.056 20.76 9.496 20.52 11.224C20.28 12.904 20.016 14.8 19.728 16.912C19.44 18.976 19.176 21.088 18.936 23.248C18.648 25.648 18.384 28.48 18.144 31.744C17.952 34.96 17.784 38.2 17.64 41.464C17.496 44.728 17.4 47.824 17.352 50.752C17.352 53.68 17.424 56.008 17.568 57.736C17.664 59.128 17.736 60.424 17.784 61.624C17.88 62.872 17.88 63.712 17.784 64.144C17.784 65.104 17.952 65.656 18.288 65.8C18.624 65.944 19.176 65.944 19.944 65.8C20.712 65.656 21.504 65.44 22.32 65.152C23.184 64.864 23.952 64.552 24.624 64.216C25.296 63.88 25.68 63.592 25.776 63.352C25.92 63.16 26.112 63.064 26.352 63.064C26.592 63.112 26.832 63.232 27.072 63.424C27.312 63.616 27.504 63.832 27.648 64.072C27.792 64.36 27.84 64.6 27.792 64.792C27.552 65.176 26.952 65.608 25.992 66.088C25.08 66.568 24.24 66.928 23.472 67.168C21.36 67.648 18.168 67.528 13.896 66.808C11.112 66.28 8.736 66.136 6.768 66.376C4.848 66.664 3.576 67.24 2.952 68.104C2.712 68.488 2.472 68.68 2.232 68.68C2.04 68.68 1.728 68.512 1.296 68.176C0.96 67.888 0.768 67.672 0.72 67.528C0.672 67.384 0.744 67.144 0.936 66.808C1.272 66.088 1.968 65.56 3.024 65.224C4.08 64.936 5.664 64.792 7.776 64.792C8.688 64.792 9.384 64.792 9.864 64.792C10.392 64.792 10.752 64.768 10.944 64.72C11.184 64.672 11.304 64.6 11.304 64.504C11.352 64.408 11.352 64.288 11.304 64.144C11.208 63.712 11.064 62.92 10.872 61.768C10.728 60.664 10.56 59.416 10.368 58.024C10.176 56.632 9.984 55.216 9.792 53.776C9.648 52.336 9.552 51.088 9.504 50.032C9.264 46.576 9.192 42.736 9.288 38.512C9.384 34.24 9.6 29.992 9.936 25.768C10.32 21.544 10.8 17.536 11.376 13.744C12 9.904 12.696 6.688 13.464 4.096C13.512 3.952 13.416 3.856 13.176 3.808C12.936 3.712 12.408 3.64 11.592 3.592C9.768 3.496 8.112 3.712 6.624 4.24C5.136 4.72 4.176 5.416 3.744 6.328ZM28.6853 29.8C29.3093 29.944 29.7893 30.112 30.1253 30.304C30.5093 30.448 30.7733 30.736 30.9173 31.168C31.0613 31.552 31.1093 32.152 31.0613 32.968C31.0613 33.736 31.0373 34.84 30.9893 36.28C30.9413 37.096 30.8453 38.056 30.7013 39.16C30.6053 40.264 30.6293 41.224 30.7733 42.04C30.7733 42.136 30.8453 42.016 30.9893 41.68C31.1333 41.344 31.2773 40.912 31.4213 40.384C31.6613 39.808 31.9973 39.064 32.4293 38.152C32.8613 37.24 33.3173 36.328 33.7973 35.416C34.2773 34.504 34.7333 33.664 35.1653 32.896C35.6453 32.08 36.0293 31.504 36.3173 31.168C37.0373 30.352 37.8293 29.728 38.6933 29.296C39.6053 28.816 40.3973 28.624 41.0693 28.72C42.0293 28.912 42.7973 29.248 43.3733 29.728C43.9973 30.208 44.4533 30.952 44.7413 31.96C45.0293 32.92 45.1733 34.168 45.1733 35.704C45.1733 37.24 45.0533 39.136 44.8133 41.392C44.6693 42.928 44.5253 44.56 44.3813 46.288C44.2373 48.016 44.1173 49.648 44.0213 51.184C43.9733 52.672 43.9492 53.944 43.9492 55C43.9492 56.056 43.9973 56.656 44.0933 56.8C44.2373 57.04 44.4053 57.064 44.5973 56.872C44.7893 56.68 45.1013 56.032 45.5333 54.928C46.0133 53.776 46.6613 52.024 47.4773 49.672C48.3413 47.32 49.4933 44.08 50.9333 39.952C51.6053 37.792 52.2053 35.944 52.7333 34.408C53.3093 32.872 53.6453 32.056 53.7413 31.96C54.0293 31.72 54.3893 31.744 54.8213 32.032C55.0133 32.128 55.1333 32.224 55.1813 32.32C55.2773 32.416 55.3013 32.632 55.2533 32.968C55.2053 33.304 55.0613 33.832 54.8213 34.552C54.6293 35.272 54.3173 36.28 53.8853 37.576C53.6453 38.296 53.3573 39.136 53.0213 40.096C52.7333 41.008 52.4453 41.944 52.1573 42.904C51.8693 43.864 51.5813 44.824 51.2933 45.784C51.0053 46.744 50.7653 47.584 50.5733 48.304C48.2213 56.224 46.1813 60.616 44.4533 61.48C44.1653 61.624 43.7813 61.72 43.3013 61.768C42.8693 61.816 42.3893 61.816 41.8613 61.768C41.3813 61.768 40.9253 61.696 40.4933 61.552C40.0613 61.456 39.7253 61.336 39.4853 61.192C38.3813 60.424 37.5413 59.08 36.9653 57.16C36.3893 55.24 36.1013 52.84 36.1013 49.96C36.1013 47.656 36.2933 45.184 36.6773 42.544C37.0613 39.904 37.7333 36.76 38.6933 33.112C38.8853 32.488 38.9333 32.248 38.8373 32.392C38.7413 32.488 38.5253 32.728 38.1893 33.112C37.4693 34.024 36.7013 35.32 35.8853 37C35.0693 38.632 34.2773 40.408 33.5093 42.328C32.7893 44.248 32.1413 46.168 31.5653 48.088C31.0373 50.008 30.6773 51.712 30.4853 53.2C30.2933 54.592 29.9813 55.504 29.5493 55.936C29.1173 56.416 28.3253 56.656 27.1733 56.656C26.4053 56.608 25.7573 56.464 25.2293 56.224C24.7493 55.984 24.3413 55.552 24.0053 54.928C23.7173 54.256 23.4773 53.368 23.2853 52.264C23.1413 51.112 23.0213 49.648 22.9253 47.872C22.8773 46.816 22.8533 45.688 22.8533 44.488C22.9013 43.24 22.9733 42.016 23.0693 40.816C23.1653 39.568 23.3093 38.368 23.5013 37.216C23.6933 36.016 23.9093 34.912 24.1493 33.904C24.5813 31.888 25.0853 30.616 25.6613 30.088C26.2853 29.512 27.2933 29.416 28.6853 29.8ZM49.2188 57.952C49.1227 56.944 49.2908 55.888 49.7228 54.784C50.1548 53.68 51.0668 52.144 52.4588 50.176C52.9868 49.36 53.4428 48.664 53.8268 48.088C54.2108 47.512 54.4028 47.2 54.4028 47.152C54.4028 47.056 54.2348 46.648 53.8988 45.928C53.6108 45.208 53.2508 44.368 52.8188 43.408C52.4828 42.64 52.1948 41.992 51.9548 41.464C51.7628 40.936 51.5948 40.456 51.4508 40.024C51.3068 39.544 51.1868 39.088 51.0908 38.656C51.0428 38.224 50.9948 37.744 50.9468 37.216C50.8028 34.912 51.1148 33.016 51.8828 31.528C52.6988 29.992 53.9468 28.96 55.6268 28.432C55.9148 28.288 56.2268 28.192 56.5628 28.144C56.8988 28.096 57.2108 28.048 57.4988 28C58.6508 28 59.6828 28.264 60.5948 28.792C61.1228 29.08 61.3388 29.416 61.2428 29.8C61.1948 30.184 60.8348 30.88 60.1628 31.888C59.3468 32.944 58.8668 34 58.7227 35.056C58.5788 36.112 58.6988 37.408 59.0828 38.944C59.2748 39.52 59.4428 40.024 59.5868 40.456C59.7308 40.888 59.8508 41.104 59.9468 41.104C59.9948 41.104 60.1388 40.984 60.3788 40.744C60.6668 40.456 60.9548 40.144 61.2428 39.808L65.6348 35.416C67.0748 33.976 68.1308 33.064 68.8028 32.68C69.5228 32.248 70.0028 32.224 70.2428 32.608C70.2908 32.704 69.9308 33.232 69.1628 34.192C68.3948 35.152 67.4108 36.256 66.2108 37.504C64.7228 39.136 63.5948 40.36 62.8268 41.176C62.1068 41.992 61.6268 42.664 61.3868 43.192C61.1948 43.72 61.2188 44.248 61.4588 44.776C61.6988 45.256 62.0348 46 62.4668 47.008C62.8028 47.824 63.1148 48.712 63.4028 49.672C63.7388 50.632 63.9068 51.64 63.9068 52.696C63.9548 53.704 63.7868 54.736 63.4028 55.792C63.0188 56.848 62.3468 57.832 61.3868 58.744C59.9948 59.992 58.4348 60.856 56.7068 61.336C55.0268 61.816 53.4908 61.864 52.0988 61.48C50.3708 61 49.4108 59.824 49.2188 57.952ZM56.1308 49.744C55.1708 50.8 54.3548 51.928 53.6828 53.128C53.0588 54.328 52.6988 55.624 52.6028 57.016C52.5068 58.36 52.8188 59.248 53.5388 59.68C54.2588 60.16 55.0748 59.968 55.9868 59.104C56.7068 58.384 57.1628 57.568 57.3548 56.656C57.5468 55.744 57.5228 54.688 57.2828 53.488C57.1868 52.96 57.0428 52.432 56.8508 51.904C56.7068 51.328 56.5868 50.92 56.4908 50.68L56.1308 49.744ZM99.7329 15.04C100.501 15.04 101.005 15.304 101.245 15.832C101.533 16.36 101.485 17.056 101.101 17.92C100.573 19.312 99.2769 20.464 97.2129 21.376C95.1969 22.288 92.6289 22.912 89.5089 23.248C88.6929 23.344 87.6369 23.392 86.3409 23.392C85.0929 23.392 83.7969 23.368 82.4529 23.32C81.1569 23.224 79.9329 23.128 78.7809 23.032C77.6289 22.936 76.7649 22.816 76.1889 22.672C75.9489 22.624 75.7329 22.744 75.5409 23.032C75.3489 23.272 75.1809 23.776 75.0369 24.544C74.8929 25.312 74.7489 26.344 74.6049 27.64C74.4609 28.888 74.2929 30.496 74.1009 32.464C73.8609 34.816 73.7169 37.408 73.6689 40.24C73.6209 43.072 73.6209 45.808 73.6689 48.448C73.7649 51.04 73.9089 53.344 74.1009 55.36C74.2929 57.424 74.5329 58.84 74.8209 59.608C74.8689 59.752 75.0129 59.728 75.2529 59.536C75.4929 59.392 75.7569 59.104 76.0449 58.672C76.3329 58.24 76.6449 57.712 76.9809 57.088C77.3649 56.464 77.7009 55.816 77.9889 55.144C78.3249 54.472 78.7569 53.344 79.2849 51.76C79.8129 50.128 80.3649 48.352 80.9409 46.432C81.5169 44.512 82.0689 42.64 82.5969 40.816C83.1249 38.944 83.5089 37.432 83.7489 36.28L84.6849 32.104C84.7329 31.864 85.0209 31.72 85.5489 31.672C86.0769 31.624 86.4369 31.696 86.6289 31.888C86.6769 31.936 86.5329 32.752 86.1969 34.336C85.8609 35.872 85.4529 37.72 84.9729 39.88C84.4929 41.992 83.9889 44.176 83.4609 46.432C82.9329 48.64 82.5009 50.416 82.1649 51.76C81.2049 55.36 80.2929 58 79.4289 59.68C78.6129 61.408 77.7249 62.416 76.7649 62.704C76.4289 62.8 76.1649 62.872 75.9729 62.92C75.8289 62.968 75.6609 62.992 75.4689 62.992C75.2769 62.992 75.0369 62.944 74.7489 62.848C74.4609 62.8 74.0769 62.704 73.5969 62.56C72.5409 62.272 71.5809 61.648 70.7169 60.688C69.9009 59.728 69.1569 58.504 68.4849 57.016C67.8609 55.528 67.3089 53.824 66.8289 51.904C66.3969 49.936 66.0369 47.824 65.7489 45.568C65.6049 44.656 65.5089 43.456 65.4609 41.968C65.4609 40.48 65.4609 38.896 65.4609 37.216C65.5089 35.488 65.5809 33.76 65.6769 32.032C65.8209 30.256 65.9649 28.648 66.1089 27.208C66.1569 26.728 66.2289 26.152 66.3249 25.48C66.4209 24.808 66.4929 24.184 66.5409 23.608C66.5889 23.032 66.6129 22.528 66.6129 22.096C66.6609 21.664 66.6849 21.448 66.6849 21.448C66.1569 21.208 65.4609 21.016 64.5969 20.872C63.6849 20.728 62.7729 20.68 61.8609 20.728C60.9009 20.776 59.9649 20.896 59.0529 21.088C58.1409 21.28 57.3969 21.568 56.8209 21.952C56.3409 22.24 56.0529 22.432 55.9569 22.528C55.8609 22.576 55.6209 22.48 55.2369 22.24C54.7089 22 54.4929 21.616 54.5889 21.088C54.6369 20.512 54.8529 20.032 55.2369 19.648C55.5249 19.408 56.1249 19.192 57.0369 19C57.9489 18.808 59.0049 18.688 60.2049 18.64C61.3569 18.592 62.5809 18.64 63.8769 18.784C65.1729 18.928 66.3489 19.168 67.4049 19.504C67.5009 19.216 67.5489 18.976 67.5489 18.784C67.5969 18.544 67.6929 18.016 67.8369 17.2C68.2209 15.28 68.6529 13.6 69.1329 12.16C69.6609 10.72 70.1889 9.64 70.7169 8.92C71.1009 8.296 71.6769 7.912 72.4449 7.768C73.3569 7.672 74.2209 7.792 75.0369 8.128C75.9009 8.416 76.5969 8.8 77.1249 9.28C77.6049 9.808 77.7729 10.384 77.6289 11.008C77.5329 11.632 77.3889 12.28 77.1969 12.952C76.7169 14.776 76.3329 16.192 76.0449 17.2C75.8049 18.208 75.6849 19.048 75.6849 19.72C75.6849 20.008 75.7089 20.248 75.7569 20.44C75.8529 20.584 76.0689 20.704 76.4049 20.8C76.7889 20.896 77.3649 20.992 78.1329 21.088C78.9489 21.136 80.0529 21.232 81.4449 21.376C83.1249 21.472 84.9489 21.496 86.9169 21.448C88.9329 21.352 90.8049 21.16 92.5329 20.872C94.2609 20.536 95.7009 20.032 96.8529 19.36C98.0529 18.64 98.6529 17.68 98.6529 16.48C98.6529 15.808 98.7009 15.4 98.7969 15.256C98.8929 15.112 99.2049 15.04 99.7329 15.04ZM83.8215 54.136C83.2455 53.848 82.7175 53.32 82.2375 52.552C81.8055 51.736 81.4215 50.824 81.0855 49.816C80.7495 48.808 80.5335 47.728 80.4375 46.576C80.2935 45.424 80.2695 44.32 80.3655 43.264C80.4615 42.208 80.6535 41.104 80.9415 39.952C81.2295 38.8 81.5895 37.696 82.0215 36.64C82.4535 35.536 82.9095 34.528 83.3895 33.616C83.9175 32.656 84.4455 31.84 84.9735 31.168C85.6455 30.4 86.4375 29.824 87.3495 29.44C88.2615 29.008 89.1975 28.768 90.1575 28.72C91.1175 28.672 92.0775 28.792 93.0375 29.08C94.0455 29.32 94.9815 29.728 95.8455 30.304C96.2295 30.544 96.4695 30.664 96.5655 30.664C96.6615 30.664 96.8295 30.568 97.0695 30.376C97.5495 29.992 98.0295 29.752 98.5095 29.656C98.9895 29.56 99.6135 29.608 100.382 29.8C100.958 29.944 101.39 30.112 101.678 30.304C102.014 30.496 102.23 30.856 102.326 31.384C102.422 31.864 102.422 32.584 102.326 33.544C102.23 34.504 102.062 35.848 101.822 37.576C101.534 39.688 101.294 41.896 101.102 44.2C100.958 46.504 100.862 48.616 100.814 50.536C100.766 52.456 100.79 54.016 100.886 55.216C100.982 56.464 101.174 57.088 101.462 57.088C101.846 57.088 102.446 56.248 103.262 54.568C104.078 52.84 104.942 50.608 105.854 47.872C106.094 47.056 106.382 46.168 106.718 45.208C107.054 44.2 107.39 43.216 107.726 42.256C108.062 41.248 108.398 40.288 108.734 39.376C109.07 38.464 109.358 37.672 109.598 37C110.03 35.848 110.366 34.96 110.606 34.336C110.894 33.664 111.11 33.184 111.254 32.896C111.446 32.56 111.614 32.344 111.758 32.248C111.902 32.152 112.094 32.104 112.334 32.104C112.814 32.056 113.102 32.056 113.198 32.104C113.294 32.152 113.318 32.296 113.27 32.536C113.174 32.728 112.934 33.328 112.55 34.336C112.214 35.344 111.83 36.496 111.398 37.792C111.158 38.464 110.894 39.256 110.606 40.168C110.318 41.032 110.006 41.968 109.67 42.976C109.382 43.984 109.07 45.016 108.734 46.072C108.446 47.08 108.182 48.016 107.942 48.88C106.886 52.384 105.998 54.904 105.278 56.44C104.606 57.976 103.862 58.96 103.046 59.392C102.326 59.776 101.39 59.968 100.238 59.968C99.0855 59.968 98.1495 59.776 97.4295 59.392C94.9335 58 93.5175 55.096 93.1815 50.68L93.0375 47.872L92.3895 49.384C91.9575 50.632 91.4775 51.664 90.9495 52.48C90.4215 53.296 89.8935 53.896 89.3655 54.28C88.6935 54.76 87.8055 54.976 86.7015 54.928C85.5975 54.832 84.6375 54.568 83.8215 54.136ZM89.5095 36.28C89.1735 37.192 88.8615 38.368 88.5735 39.808C88.2855 41.2 88.0455 42.616 87.8535 44.056C87.6615 45.496 87.5175 46.84 87.4215 48.088C87.3735 49.288 87.3975 50.152 87.4935 50.68C87.5895 51.352 87.7095 51.64 87.8535 51.544C88.0455 51.448 88.5015 50.776 89.2215 49.528C89.5575 48.952 90.0135 47.992 90.5895 46.648C91.1655 45.256 91.7415 43.816 92.3175 42.328C92.9415 40.792 93.4935 39.352 93.9735 38.008C94.5015 36.664 94.8375 35.728 94.9815 35.2C95.2695 34.288 95.4135 33.712 95.4135 33.472C95.4135 33.184 95.2695 32.848 94.9815 32.464C94.7415 32.128 94.3575 31.792 93.8295 31.456C93.3015 31.072 92.8215 31.096 92.3895 31.528C91.9095 31.912 91.3815 32.56 90.8055 33.472C90.2775 34.384 89.8455 35.32 89.5095 36.28ZM107.508 52.9609C107.508 52.4453 107.812 52.0469 108.422 51.7656C111.703 52 114.961 52 118.195 51.7656C121.477 51.5312 124.734 51.2266 127.969 50.8516C131.203 50.4766 134.438 50.125 137.672 49.7969C140.906 49.4219 144.188 49.2344 147.516 49.2344H149.977C150.492 49.2344 150.984 49.2578 151.453 49.3047C151.922 49.3047 152.25 49.3047 152.438 49.3047C152.531 49.3984 152.672 49.6562 152.859 50.0781C153.094 50.4531 153.211 50.7344 153.211 50.9219C153.211 51.1094 153.141 51.3438 153 51.625C152.859 51.9062 152.695 52.1875 152.508 52.4688C152.32 52.7031 152.109 52.9141 151.875 53.1016C151.641 53.2891 151.43 53.3828 151.242 53.3828C149.836 53.3828 148.453 53.2422 147.094 52.9609C145.734 52.6797 144.375 52.5391 143.016 52.5391C140.578 52.5391 138.188 52.6797 135.844 52.9609C133.5 53.2422 131.133 53.5469 128.742 53.875C126.352 54.1562 123.961 54.4375 121.57 54.7188C119.227 54.9531 116.859 55.0703 114.469 55.0703C114.094 55.0703 113.508 55.0703 112.711 55.0703C111.914 55.1172 111.141 55.0938 110.391 55C109.641 54.8594 108.961 54.6484 108.352 54.3672C107.789 54.0859 107.508 53.6172 107.508 52.9609ZM178.876 45.136C178.66 43.912 179.02 44.128 164.548 32.104C164.548 32.104 171.316 23.752 171.964 22.168C173.332 19.072 169.228 16.696 167.068 19.288C165.988 20.512 162.964 25.408 162.388 25.192C162.028 19.792 162.46 5.536 162.172 4.528C161.812 3.304 160.732 2.512 159.508 2.44C156.052 2.368 155.548 3.88 156.7 34.336C157.348 50.464 157.564 52.264 160.516 52.48C165.772 52.768 162.388 44.2 162.748 38.368C163.108 38.368 172.252 45.928 173.404 47.44C175.204 49.672 179.452 48.448 178.876 45.136ZM201.049 46.504C198.817 41.536 199.033 28 198.601 26.488C197.809 23.824 193.921 23.68 193.057 26.488C192.841 27.136 190.609 38.8 187.225 42.04C185.353 40.096 186.001 35.128 186.289 25.624C186.361 21.592 180.529 20.008 180.385 26.92C180.313 33.832 178.801 43.408 184.273 47.368C188.377 50.32 191.473 46.36 194.065 42.328C195.289 48.16 195.361 48.592 196.009 49.384C198.169 52.192 202.345 49.456 201.049 46.504ZM223.03 29.008C222.022 22.384 216.694 16.912 209.926 22.672C209.926 22.168 209.854 22.528 210.07 18.928C210.142 16.912 210.934 4.24 210.934 3.736C210.934 2.224 209.854 1.072 208.414 0.927997C204.022 0.495998 204.886 4.816 203.806 34.12C203.59 39.52 204.238 48.088 204.454 49.312C204.67 50.608 205.75 51.616 207.046 51.688C214.246 52.048 205.462 38.44 213.886 27.064C217.918 21.664 218.062 38.44 217.846 45.208C217.702 50.896 223.534 50.176 223.678 46.432C223.678 46.432 223.75 33.472 223.03 29.008ZM233.779 48.664C232.339 42.4 232.411 27.424 232.555 25.912C232.699 24.472 231.619 23.176 230.323 22.96C225.787 22.024 226.651 28.216 226.867 34.696C226.939 49.96 228.091 51.256 230.035 51.904C232.195 52.624 234.283 50.824 233.779 48.664ZM229.027 19.936C230.611 20.008 231.979 18.64 231.907 17.056C231.907 15.4 230.539 14.104 228.811 14.176C227.227 14.176 225.931 15.4 226.003 16.984C226.003 18.64 227.227 19.864 229.027 19.936ZM260.759 47.152C259.967 39.016 260.039 26.344 253.559 23.464C245.999 20.152 243.407 30.952 242.327 30.736C242.255 28.936 242.111 25.84 241.895 24.616C241.463 21.16 235.991 21.304 236.279 25.408C237.503 47.152 237.143 47.656 239.807 48.376C244.991 49.672 244.127 37.504 249.743 29.872C250.031 29.44 250.391 28.936 250.967 28.648C254.927 31.168 254.423 46.648 255.215 48.952C256.295 51.976 261.119 51.4 260.759 47.152ZM268.541 24.76C267.677 23.176 265.589 22.672 264.221 23.824C261.413 26.056 265.085 26.704 264.077 48.736C263.429 62.92 256.661 62.992 254.717 61.984C250.829 59.824 246.725 68.248 255.941 68.104C271.133 67.888 269.909 48.088 270.053 40.024C269.981 38.8 269.621 27.064 268.541 24.76ZM264.869 19.72C266.381 19.936 267.677 19 268.037 17.56C268.109 17.272 268.181 16.984 268.181 16.696C268.253 15.4 267.389 14.032 265.877 13.744C264.509 13.456 263.141 14.248 262.637 15.544C262.493 15.904 262.421 16.336 262.421 16.768C262.349 18.28 263.429 19.576 264.869 19.72ZM294.51 42.616C292.206 32.032 296.31 26.416 292.206 24.904C291.126 24.472 288.966 20.8 282.918 22.096C274.566 23.896 267.006 42.904 277.734 47.944C282.414 50.176 285.366 46.072 288.462 41.968C289.974 47.872 289.686 52.552 293.502 52.12C297.534 51.688 295.374 46.648 294.51 42.616ZM280.182 42.688C274.35 39.88 282.99 22.6 287.886 28.936C286.518 32.608 283.71 40.6 280.182 42.688Z" fill="white"/>
</svg>
